G04 Layer: BottomSolderMaskLayer*
G04 EasyEDA v6.4.25, 2021-11-28T11:35:11+01:00*
G04 012f4e6f5168424cbf972d7804d96389,6d705683b9bb4ad5a2e260519191d1bd,10*
G04 Gerber Generator version 0.2*
G04 Scale: 100 percent, Rotated: No, Reflected: No *
G04 Dimensions in millimeters *
G04 leading zeros omitted , absolute positions ,4 integer and 5 decimal *
%FSLAX45Y45*%
%MOMM*%

%ADD42C,2.0828*%
%ADD43C,1.8542*%
%ADD45C,1.7272*%
%ADD48C,2.0032*%
%ADD50C,1.8796*%
%ADD52C,1.6002*%
%ADD53C,2.2032*%
%ADD54C,2.7432*%
%ADD55C,4.2032*%
%ADD57C,1.9812*%
%ADD58R,2.5832X4.4882*%

%LPD*%
D42*
G01*
X18045460Y8717473D03*
G01*
X16775460Y8717473D03*
G01*
X16436472Y8719987D03*
G01*
X15166472Y8719987D03*
D43*
G01*
X8176976Y7460985D03*
G01*
X8430976Y7460985D03*
G01*
X8176976Y6191493D03*
G01*
X8430976Y6191493D03*
G01*
X14567463Y6191493D03*
G01*
X14821463Y6191493D03*
G01*
X14567463Y7460985D03*
G01*
X14821463Y7460985D03*
D42*
G01*
X4407489Y5020985D03*
G01*
X4407489Y4004985D03*
G01*
X17009470Y5040492D03*
G01*
X17009470Y4024492D03*
G01*
X18310458Y5045979D03*
G01*
X19580458Y5045979D03*
G01*
X13705464Y4892487D03*
G01*
X13705464Y3876487D03*
G01*
X10811489Y4950500D03*
G01*
X10811489Y3934500D03*
G01*
X19842967Y5016997D03*
G01*
X19842967Y4000997D03*
G01*
X7330978Y5131475D03*
G01*
X7330978Y4115475D03*
G01*
X11555989Y2787487D03*
G01*
X11555989Y1517487D03*
G01*
X10723478Y1517487D03*
G01*
X10723478Y2787487D03*
G01*
X9786472Y1517487D03*
G01*
X9786472Y2787487D03*
G01*
X8861480Y1517487D03*
G01*
X8861480Y2787487D03*
G01*
X14378970Y1517487D03*
G01*
X14378970Y2787487D03*
G01*
X5797986Y5030993D03*
G01*
X7067986Y5030993D03*
G01*
X16949475Y1517487D03*
G01*
X16949475Y2787487D03*
G01*
X15419964Y5040492D03*
G01*
X16689964Y5040492D03*
G01*
X15185979Y2787487D03*
G01*
X15185979Y1517487D03*
G01*
X9234987Y5061498D03*
G01*
X10504987Y5061498D03*
G01*
X2864490Y5020477D03*
G01*
X4134490Y5020477D03*
G01*
X12188474Y5061981D03*
G01*
X13458474Y5061981D03*
G01*
X797488Y6993981D03*
G01*
X797488Y5723981D03*
G01*
X12685984Y2787487D03*
G01*
X12685984Y1517487D03*
G01*
X16012469Y1517487D03*
G01*
X16012469Y2787487D03*
G01*
X13594466Y2787487D03*
G01*
X13594466Y1517487D03*
G01*
X789487Y3933002D03*
G01*
X789487Y2663002D03*
G01*
X5853993Y4738994D03*
G01*
X5853993Y3722994D03*
G01*
X11873616Y5045014D03*
G01*
X11873616Y3775014D03*
G01*
X15142088Y5015042D03*
G01*
X15142088Y3745042D03*
G01*
X2951485Y4762997D03*
G01*
X2951485Y3746997D03*
G01*
X2533502Y5019995D03*
G01*
X2533502Y3749995D03*
G01*
X15553974Y4751491D03*
G01*
X15553974Y3735491D03*
G01*
X5508477Y4994493D03*
G01*
X5508477Y3724493D03*
G01*
X12278974Y4786492D03*
G01*
X12278974Y3770492D03*
G01*
X18006954Y5025989D03*
G01*
X18006954Y3755989D03*
G01*
X18381959Y4796500D03*
G01*
X18381959Y3780500D03*
G01*
X8951092Y5044506D03*
G01*
X8951092Y3774506D03*
G01*
X9323481Y4771481D03*
G01*
X9323481Y3755481D03*
G36*
X2545212Y2320356D02*
G01*
X2545212Y2578674D01*
X2994030Y2578674D01*
X2994030Y2320356D01*
G37*
G36*
X2545212Y2818196D02*
G01*
X2545212Y3076514D01*
X2994030Y3076514D01*
X2994030Y2818196D01*
G37*
D45*
G01*
X15129464Y9235988D03*
G01*
X15129464Y9489988D03*
G01*
X15129464Y9743988D03*
G01*
X15129464Y9997988D03*
G01*
X15129464Y10251988D03*
G36*
X15043028Y10419654D02*
G01*
X15043028Y10592374D01*
X15215748Y10592374D01*
X15215748Y10419654D01*
G37*
G36*
X15959714Y3812352D02*
G01*
X15959714Y4012758D01*
X16160120Y4012758D01*
X16160120Y3812352D01*
G37*
D48*
G01*
X16313891Y3912478D03*
G01*
X16567891Y3912478D03*
G36*
X9737222Y3926906D02*
G01*
X9737222Y4127058D01*
X9937628Y4127058D01*
X9937628Y3926906D01*
G37*
G01*
X10091399Y4026982D03*
G01*
X10345399Y4026982D03*
G36*
X18841598Y3911412D02*
G01*
X18841598Y4111564D01*
X19042004Y4111564D01*
X19042004Y3911412D01*
G37*
G01*
X19195877Y4011488D03*
G01*
X19449877Y4011488D03*
G36*
X12623932Y3925382D02*
G01*
X12623932Y4125534D01*
X12824084Y4125534D01*
X12824084Y3925382D01*
G37*
G01*
X12977982Y4025483D03*
G01*
X13231982Y4025483D03*
G36*
X6236848Y3864422D02*
G01*
X6236848Y4064574D01*
X6437254Y4064574D01*
X6437254Y3864422D01*
G37*
G01*
X6591000Y3964498D03*
G01*
X6845000Y3964498D03*
G36*
X3411860Y3950782D02*
G01*
X3411860Y4151188D01*
X3612266Y4151188D01*
X3612266Y3950782D01*
G37*
G01*
X3765986Y4050985D03*
G01*
X4019986Y4050985D03*
D42*
G01*
X4753488Y5023500D03*
G01*
X4753488Y3753500D03*
G01*
X17353970Y5306989D03*
G01*
X17353970Y4036989D03*
G01*
X11151468Y5204983D03*
G01*
X11151468Y3934983D03*
G01*
X14037467Y5149992D03*
G01*
X14037467Y3879992D03*
G01*
X20189957Y5269981D03*
G01*
X20189957Y3999981D03*
G01*
X7661483Y5347477D03*
G01*
X7661483Y4077477D03*
G36*
X13148188Y4547936D02*
G01*
X13148188Y4735896D01*
X13336148Y4735896D01*
X13336148Y4547936D01*
G37*
D50*
G01*
X12988142Y4641992D03*
G01*
X12734142Y4641992D03*
G36*
X10261478Y4552508D02*
G01*
X10261478Y4740468D01*
X10449438Y4740468D01*
X10449438Y4552508D01*
G37*
G01*
X10101559Y4646488D03*
G01*
X9847559Y4646488D03*
G36*
X6750436Y4457512D02*
G01*
X6750436Y4645472D01*
X6938396Y4645472D01*
X6938396Y4457512D01*
G37*
G01*
X6590492Y4551492D03*
G01*
X6336492Y4551492D03*
G36*
X16483970Y4515424D02*
G01*
X16483970Y4703384D01*
X16671930Y4703384D01*
X16671930Y4515424D01*
G37*
G01*
X16324051Y4609480D03*
G01*
X16070051Y4609480D03*
G36*
X3936116Y4474530D02*
G01*
X3936116Y4662490D01*
X4124076Y4662490D01*
X4124076Y4474530D01*
G37*
G01*
X3776146Y4568586D03*
G01*
X3522146Y4568586D03*
G36*
X19366108Y4540570D02*
G01*
X19366108Y4728530D01*
X19554068Y4728530D01*
X19554068Y4540570D01*
G37*
G01*
X19206037Y4634499D03*
G01*
X18952037Y4634499D03*
G36*
X2545466Y1061786D02*
G01*
X2545466Y1320104D01*
X2994538Y1320104D01*
X2994538Y1061786D01*
G37*
G36*
X2545466Y1559626D02*
G01*
X2545466Y1817944D01*
X2994538Y1817944D01*
X2994538Y1559626D01*
G37*
G36*
X14078590Y1075502D02*
G01*
X14078590Y1235522D01*
X14238610Y1235522D01*
X14238610Y1075502D01*
G37*
D52*
G01*
X13904473Y1155486D03*
G01*
X13650473Y1155486D03*
G01*
X13396473Y1155486D03*
G01*
X13142473Y1155486D03*
G01*
X12888473Y1155486D03*
G01*
X12634473Y1155486D03*
G01*
X12380473Y1155486D03*
G01*
X12380473Y393486D03*
G01*
X12634473Y393486D03*
G01*
X12888473Y393486D03*
G01*
X13142473Y393486D03*
G01*
X13396473Y393486D03*
G01*
X13650473Y393486D03*
G01*
X13904473Y393486D03*
G01*
X14158473Y393486D03*
D53*
G01*
X8249975Y8894968D03*
G01*
X8249975Y10434970D03*
G01*
X5309976Y9414982D03*
G01*
X5309976Y9914981D03*
D54*
G01*
X4265985Y6824995D03*
G01*
X3115975Y6824995D03*
G01*
X4265985Y7274981D03*
G01*
X4090776Y7625095D03*
G01*
X3690980Y7724993D03*
G01*
X3290676Y7624993D03*
G01*
X3115975Y7274981D03*
G01*
X3115975Y6374983D03*
G01*
X3290676Y6024895D03*
G01*
X3690726Y5925073D03*
G01*
X4090979Y6024996D03*
G01*
X4265985Y6374983D03*
D55*
G01*
X3690980Y6824995D03*
D54*
G01*
X19759985Y6824995D03*
G01*
X18609975Y6824995D03*
G01*
X19759985Y7274981D03*
G01*
X19584776Y7625095D03*
G01*
X19184980Y7724993D03*
G01*
X18784676Y7624993D03*
G01*
X18609975Y7274981D03*
G01*
X18609975Y6374983D03*
G01*
X18784676Y6024895D03*
G01*
X19184726Y5925073D03*
G01*
X19584979Y6024996D03*
G01*
X19759985Y6374983D03*
D55*
G01*
X19184980Y6824995D03*
D54*
G01*
X16965985Y6824995D03*
G01*
X15815975Y6824995D03*
G01*
X16965985Y7274981D03*
G01*
X16790776Y7625095D03*
G01*
X16390980Y7724993D03*
G01*
X15990676Y7624993D03*
G01*
X15815975Y7274981D03*
G01*
X15815975Y6374983D03*
G01*
X15990676Y6024895D03*
G01*
X16390726Y5925073D03*
G01*
X16790979Y6024996D03*
G01*
X16965985Y6374983D03*
D55*
G01*
X16390980Y6824995D03*
D54*
G01*
X13409985Y6824995D03*
G01*
X12259975Y6824995D03*
G01*
X13409985Y7274981D03*
G01*
X13234776Y7625095D03*
G01*
X12834980Y7724993D03*
G01*
X12434676Y7624993D03*
G01*
X12259975Y7274981D03*
G01*
X12259975Y6374983D03*
G01*
X12434676Y6024895D03*
G01*
X12834726Y5925073D03*
G01*
X13234979Y6024996D03*
G01*
X13409985Y6374983D03*
D55*
G01*
X12834980Y6824995D03*
D54*
G01*
X10648980Y6823496D03*
G01*
X9498970Y6823496D03*
G01*
X10648980Y7273483D03*
G01*
X10473771Y7623596D03*
G01*
X10073975Y7723494D03*
G01*
X9673671Y7623495D03*
G01*
X9498970Y7273483D03*
G01*
X9498970Y6373484D03*
G01*
X9673671Y6023396D03*
G01*
X10073721Y5923574D03*
G01*
X10473974Y6023498D03*
G01*
X10648980Y6373484D03*
D55*
G01*
X10073975Y6823496D03*
D54*
G01*
X7059985Y6824995D03*
G01*
X5909975Y6824995D03*
G01*
X7059985Y7274981D03*
G01*
X6884776Y7625095D03*
G01*
X6484980Y7724993D03*
G01*
X6084676Y7624993D03*
G01*
X5909975Y7274981D03*
G01*
X5909975Y6374983D03*
G01*
X6084676Y6024895D03*
G01*
X6484726Y5925073D03*
G01*
X6884979Y6024996D03*
G01*
X7059985Y6374983D03*
D55*
G01*
X6484980Y6824995D03*
G36*
X3678052Y1388938D02*
G01*
X3678052Y1587058D01*
X3876172Y1587058D01*
X3876172Y1388938D01*
G37*
D57*
G01*
X4030985Y1487998D03*
G01*
X4284985Y1487998D03*
G01*
X4538985Y1487998D03*
G01*
X4792985Y1487998D03*
G01*
X5046985Y1487998D03*
G01*
X5300985Y1487998D03*
G01*
X5554985Y1487998D03*
G01*
X5808985Y1487998D03*
G01*
X6062985Y1487998D03*
G01*
X6316985Y1487998D03*
G01*
X6570985Y1487998D03*
G01*
X6824985Y1487998D03*
G01*
X7078985Y1487998D03*
G01*
X7332985Y1487998D03*
G01*
X3776985Y3011998D03*
G01*
X4030985Y3011998D03*
G01*
X4284985Y3011998D03*
G01*
X4538985Y3011998D03*
G01*
X4792985Y3011998D03*
G01*
X5046985Y3011998D03*
G01*
X5300985Y3011998D03*
G01*
X5554985Y3011998D03*
G01*
X5808985Y3011998D03*
G01*
X6062985Y3011998D03*
G01*
X6316985Y3011998D03*
G01*
X6570985Y3011998D03*
G01*
X6824985Y3011998D03*
G01*
X7078985Y3011998D03*
G01*
X7332985Y3011998D03*
G36*
X10771764Y9187754D02*
G01*
X10771764Y9388160D01*
X10972170Y9388160D01*
X10972170Y9187754D01*
G37*
D48*
G01*
X10871967Y9541982D03*
G01*
X10871967Y9795982D03*
G01*
X10871967Y10049982D03*
D42*
G01*
X14427967Y9033982D03*
G01*
X14427967Y9287982D03*
G01*
X14427967Y9541982D03*
G01*
X14427967Y9795982D03*
G01*
X14427967Y10049982D03*
G01*
X14427967Y10303982D03*
D57*
G01*
X3475080Y9334972D03*
G01*
X2974954Y9334972D03*
D58*
G01*
X4613915Y10034971D03*
G01*
X4116075Y10034971D03*
G36*
X1659768Y6769166D02*
G01*
X1659768Y7217984D01*
X1918086Y7217984D01*
X1918086Y6769166D01*
G37*
G36*
X1161928Y6769166D02*
G01*
X1161928Y7217984D01*
X1420246Y7217984D01*
X1420246Y6769166D01*
G37*
G36*
X15346558Y3211896D02*
G01*
X15346558Y3399856D01*
X15534518Y3399856D01*
X15534518Y3211896D01*
G37*
D50*
G01*
X15186436Y3306003D03*
G01*
X14932436Y3306003D03*
G36*
X9016624Y3211896D02*
G01*
X9016624Y3399856D01*
X9204584Y3399856D01*
X9204584Y3211896D01*
G37*
G01*
X8856477Y3306003D03*
G01*
X8602477Y3306003D03*
G36*
X17108556Y3211896D02*
G01*
X17108556Y3399856D01*
X17296516Y3399856D01*
X17296516Y3211896D01*
G37*
G01*
X16948434Y3306003D03*
G01*
X16694434Y3306003D03*
G36*
X9948042Y3211896D02*
G01*
X9948042Y3399856D01*
X10136002Y3399856D01*
X10136002Y3211896D01*
G37*
G01*
X9787945Y3306003D03*
G01*
X9533945Y3306003D03*
G36*
X16173582Y3211896D02*
G01*
X16173582Y3399856D01*
X16361542Y3399856D01*
X16361542Y3211896D01*
G37*
G01*
X16013435Y3306003D03*
G01*
X15759435Y3306003D03*
G36*
X11715882Y3211896D02*
G01*
X11715882Y3399856D01*
X11903842Y3399856D01*
X11903842Y3211896D01*
G37*
G01*
X11555963Y3306003D03*
G01*
X11301963Y3306003D03*
G36*
X12845420Y3211896D02*
G01*
X12845420Y3399856D01*
X13033380Y3399856D01*
X13033380Y3211896D01*
G37*
G01*
X12685450Y3306003D03*
G01*
X12431450Y3306003D03*
G36*
X13752962Y3211896D02*
G01*
X13752962Y3399856D01*
X13940922Y3399856D01*
X13940922Y3211896D01*
G37*
G01*
X13592942Y3306003D03*
G01*
X13338942Y3306003D03*
G36*
X14538584Y3211896D02*
G01*
X14538584Y3399856D01*
X14726544Y3399856D01*
X14726544Y3211896D01*
G37*
G01*
X14378437Y3306003D03*
G01*
X14124437Y3306003D03*
G36*
X10884032Y3211896D02*
G01*
X10884032Y3399856D01*
X11071992Y3399856D01*
X11071992Y3211896D01*
G37*
G01*
X10723961Y3306003D03*
G01*
X10469961Y3306003D03*
G36*
X1659768Y3708974D02*
G01*
X1659768Y4157792D01*
X1918086Y4157792D01*
X1918086Y3708974D01*
G37*
G36*
X1161928Y3708974D02*
G01*
X1161928Y4157792D01*
X1420246Y4157792D01*
X1420246Y3708974D01*
G37*
D54*
G01*
X10361960Y9513585D03*
G01*
X10366888Y10281986D03*
G01*
X8842964Y9515083D03*
G01*
X8844996Y10281909D03*
G01*
X8842888Y9516684D03*
G01*
X8844920Y10281986D03*
M02*
