M48
METRIC,LZ,000.000
;FILE_FORMAT=3:3
;TYPE=PLATED
;Layer: Drill PTH
;EasyEDA v6.4.25, 2021-11-28T11:35:11+01:00
;012f4e6f5168424cbf972d7804d96389,6d705683b9bb4ad5a2e260519191d1bd,10
;Gerber Generator version 0.2
;Holesize 1 = 0.400 mm
T01C0.400
;Holesize 2 = 0.712 mm
T02C0.712
;Holesize 3 = 0.813 mm
T03C0.813
;Holesize 4 = 0.900 mm
T04C0.900
;Holesize 5 = 0.901 mm
T05C0.901
;Holesize 6 = 0.915 mm
T06C0.915
;Holesize 7 = 1.000 mm
T07C1.000
;Holesize 8 = 1.016 mm
T08C1.016
;Holesize 9 = 1.101 mm
T09C1.101
;Holesize 10 = 1.200 mm
T10C1.200
;Holesize 11 = 1.403 mm
T11C1.403
;Holesize 12 = 3.501 mm
T12C3.501
%
G05
G90
T01
X155275Y005300
X175555Y033555
X172495Y037540
X067110Y004775
X055650Y005995
X061940Y007215
X123824Y007189
X180840Y076240
X175060Y076240
X179435Y072795
X177565Y074735
X040310Y004920
X033135Y022375
X033135Y029840
X146065Y069100
X150280Y063295
X146180Y038035
X136450Y036239
X148025Y024565
X152400Y064315
X150350Y069490
X156375Y082475
X143910Y082450
X155650Y075350
X139955Y076290
X170160Y035575
X137045Y042035
X074715Y033015
X051045Y042390
X144105Y063400
X141415Y062805
X141390Y068940
X115850Y061175
X115830Y067685
X113110Y061270
X113100Y066950
X085970Y063825
X086000Y067370
X088985Y063390
X089050Y067425
X091235Y064390
X104600Y035550
X077475Y063365
X077495Y067500
X080330Y063055
X080375Y067115
X044300Y078900
X072605Y081040
X118870Y081795
X125150Y081600
X046100Y069100
X053250Y070050
X065750Y056550
X102250Y056800
X129250Y056650
X163975Y056340
X188190Y056925
X091895Y071355
X118165Y070615
X152150Y070600
X053325Y076615
X054200Y017550
X030000Y034400
X104515Y083755
X122395Y083655
X086495Y085020
X178810Y044430
X188235Y044430
X122880Y028900
X084120Y050945
X089930Y054365
X148215Y083780
X153495Y071645
X062095Y033665
X052700Y035925
X076335Y036805
X082895Y055050
X076065Y078125
X040345Y037425
X051100Y081250
X046500Y045480
X045725Y036365
X137475Y077670
X133755Y081350
X095980Y087455
X092690Y060400
X096790Y052935
X134250Y055105
X087446Y019610
X164900Y031090
X076745Y032425
X080900Y033345
X072045Y036770
X073275Y044080
X068145Y042795
X056875Y035105
X066550Y035070
X084830Y013705
X089395Y009160
X100420Y028170
X148610Y090375
X090780Y079545
X088275Y077055
T02
X141585Y011555
X139045Y011555
X136505Y011555
X133965Y011555
X131425Y011555
X128885Y011555
X126345Y011555
X123805Y011555
X123805Y003935
X126345Y003935
X128885Y003935
X131425Y003935
X133965Y003935
X136505Y003935
X139045Y003935
X141585Y003935
T03
X132421Y046420
X129881Y046420
X127341Y046420
X103556Y046465
X101016Y046465
X098476Y046465
X068445Y045515
X065905Y045515
X063365Y045515
X165780Y046095
X163240Y046095
X160700Y046095
X040302Y045686
X037762Y045686
X035222Y045686
X194600Y046345
X192060Y046345
X189520Y046345
X154404Y033060
X151864Y033060
X149324Y033060
X091105Y033060
X088565Y033060
X086025Y033060
X172024Y033060
X169484Y033060
X166944Y033060
X100420Y033060
X097880Y033060
X095340Y033060
X162674Y033060
X160134Y033060
X157594Y033060
X118100Y033060
X115560Y033060
X113020Y033060
X129395Y033060
X126855Y033060
X124315Y033060
X138470Y033060
X135930Y033060
X133390Y033060
X146325Y033060
X143785Y033060
X141245Y033060
X109780Y033060
X107240Y033060
X104700Y033060
T04
X180455Y087175
X167755Y087175
X164365Y087200
X151665Y087200
X044075Y050210
X044075Y040050
X170095Y050405
X170095Y040245
X183105Y050460
X195805Y050460
X137055Y048925
X137055Y038765
X108115Y049505
X108115Y039345
X198430Y050170
X198430Y040010
X073310Y051315
X073310Y041155
X115560Y027875
X115560Y015175
X107235Y015175
X107235Y027875
X097865Y015175
X097865Y027875
X088615Y015175
X088615Y027875
X143790Y015175
X143790Y027875
X057980Y050310
X070680Y050310
X169495Y015175
X169495Y027875
X154200Y050405
X166900Y050405
X151860Y027875
X151860Y015175
X092350Y050615
X105050Y050615
X028645Y050205
X041345Y050205
X121885Y050620
X134585Y050620
X007975Y069940
X007975Y057240
X126860Y027875
X126860Y015175
X160125Y015175
X160125Y027875
X135945Y027875
X135945Y015175
X007895Y039330
X007895Y026630
X058540Y047390
X058540Y037230
X118736Y050450
X118736Y037750
X151421Y050150
X151421Y037450
X029515Y047630
X029515Y037470
X025335Y050200
X025335Y037500
X155540Y047515
X155540Y037355
X055085Y049945
X055085Y037245
X122790Y047865
X122790Y037705
X180070Y050260
X180070Y037560
X183820Y047965
X183820Y037805
X089511Y050445
X089511Y037745
X093235Y047715
X093235Y037555
X047535Y050235
X047535Y037535
X173540Y053070
X173540Y040370
X111515Y052050
X111515Y039350
X140375Y051500
X140375Y038800
X201900Y052700
X201900Y040000
X076615Y053475
X076615Y040775
X034751Y093350
X029749Y093350
T05
X081770Y074610
X084310Y074610
X081770Y061915
X084310Y061915
X145675Y061915
X148215Y061915
X145675Y074610
X148215Y074610
T06
X151295Y092360
X151295Y094900
X151295Y097440
X151295Y099980
X151295Y102520
X151295Y105060
X037770Y014880
X040310Y014880
X042850Y014880
X045390Y014880
X047930Y014880
X050470Y014880
X053010Y014880
X055550Y014880
X058090Y014880
X060630Y014880
X063170Y014880
X065710Y014880
X068250Y014880
X070790Y014880
X073330Y014880
X037770Y030120
X040310Y030120
X042850Y030120
X045390Y030120
X047930Y030120
X050470Y030120
X053010Y030120
X055550Y030120
X058090Y030120
X060630Y030120
X063170Y030120
X065710Y030120
X068250Y030120
X070790Y030120
X073330Y030120
T07
X160599Y039125
X163139Y039125
X165679Y039125
X098374Y040270
X100914Y040270
X103454Y040270
X189419Y040115
X191959Y040115
X194499Y040115
X127240Y040255
X129780Y040255
X132320Y040255
X063370Y039645
X065910Y039645
X068450Y039645
X035120Y040510
X037660Y040510
X040200Y040510
X108720Y092880
X108720Y095420
X108720Y097960
X108720Y100500
T08
X144280Y090340
X144280Y092880
X144280Y095420
X144280Y097960
X144280Y100500
X144280Y103040
T09
X042660Y068250
X031160Y068250
X042660Y072750
X040908Y076251
X036910Y077250
X032907Y076250
X031160Y072750
X031160Y063750
X032907Y060249
X036907Y059251
X040910Y060250
X042660Y063750
X197600Y068250
X186100Y068250
X197600Y072750
X195848Y076251
X191850Y077250
X187847Y076250
X186100Y072750
X186100Y063750
X187847Y060249
X191847Y059251
X195850Y060250
X197600Y063750
X169660Y068250
X158160Y068250
X169660Y072750
X167908Y076251
X163910Y077250
X159907Y076250
X158160Y072750
X158160Y063750
X159907Y060249
X163907Y059251
X167910Y060250
X169660Y063750
X134100Y068250
X122600Y068250
X134100Y072750
X132348Y076251
X128350Y077250
X124347Y076250
X122600Y072750
X122600Y063750
X124347Y060249
X128347Y059251
X132350Y060250
X134100Y063750
X106490Y068235
X094990Y068235
X106490Y072735
X104738Y076236
X100740Y077235
X096737Y076235
X094990Y072735
X094990Y063735
X096737Y060234
X100737Y059236
X104740Y060235
X106490Y063735
X070600Y068250
X059100Y068250
X070600Y072750
X068848Y076251
X064850Y077250
X060847Y076250
X059100Y072750
X059100Y063750
X060847Y060249
X064847Y059251
X068850Y060250
X070600Y063750
T10
X082500Y088950
X082500Y104350
X053100Y094150
X053100Y099150
X103620Y095136
X103669Y102820
X088430Y095151
X088450Y102819
X088429Y095167
X088449Y102820
T11
X027695Y024496
X027695Y029474
X027700Y011911
X027700Y016889
X046139Y100350
X041161Y100350
X017889Y069935
X012911Y069935
X017889Y039335
X012911Y039335
T12
X036910Y068250
X191850Y068250
X163910Y068250
X128350Y068250
X100740Y068235
X064850Y068250
M30
